<?xml version="1.0" encoding="UTF-8"?> <!-- Generator: Adobe Illustrator 24.2.0, SVG Export Plug-In . SVG Version: 6.00 Build 0) --> <svg xmlns="http://www.w3.org/2000/svg" xmlns:xlink="http://www.w3.org/1999/xlink" id="Layer_1" x="0px" y="0px" viewBox="0 0 100.5 100.5" style="enable-background:new 0 0 100.5 100.5;" xml:space="preserve"> <style type="text/css"> .st0{fill:#F15A29;} </style> <path class="st0" d="M61.8,53.5c12.5,0,22.6-10.1,22.6-22.6S74.3,8.3,61.8,8.3H25.1c-0.8,0-1.5,0.7-1.5,1.5s0.7,1.5,1.5,1.5h7.4 l-0.1,39.2h-7.3c-0.8,0-1.5,0.7-1.5,1.5s0.7,1.5,1.5,1.5h7.3l0,11.1h-7.3c-0.8,0-1.5,0.7-1.5,1.5s0.7,1.5,1.5,1.5h7.3l0,22.6 c0,0.8,0.7,1.5,1.5,1.5c0,0,0,0,0,0c0.8,0,1.5-0.7,1.5-1.5l0-22.6h28c0.8,0,1.5-0.7,1.5-1.5s-0.7-1.5-1.5-1.5H35.4l0-11.1 C35.4,53.5,61.8,53.5,61.8,53.5z M35.5,11.3h26.3c10.8,0,19.6,8.8,19.6,19.6c0,10.8-8.8,19.6-19.6,19.6H35.4L35.5,11.3z"></path> </svg> 