<?xml version="1.0" encoding="UTF-8"?> <!-- Generator: Adobe Illustrator 24.2.0, SVG Export Plug-In . SVG Version: 6.00 Build 0) --> <svg xmlns="http://www.w3.org/2000/svg" xmlns:xlink="http://www.w3.org/1999/xlink" id="Layer_1" x="0px" y="0px" viewBox="0 0 101 101" style="enable-background:new 0 0 101 101;" xml:space="preserve"> <style type="text/css"> .st0{fill:none;} .st1{fill:#F15A29;} </style> <g> <rect x="43" y="9" class="st0" width="15" height="6"></rect> <path class="st0" d="M39.1,62L23,81.5v0L39.1,62C39.1,62,39.1,62,39.1,62z"></path> <path class="st0" d="M73.5,34c0.8,0,1.5,0.7,1.5,1.5S74.3,37,73.5,37h-9.3L56,47h17.5c0.8,0,1.5,0.7,1.5,1.5S74.3,50,73.5,50h-20 l-8.2,10h28.2c0.8,0,1.5,0.7,1.5,1.5S74.3,63,73.5,63H42.8L26.4,83H79V19L66.7,34H73.5z"></path> <path class="st0" d="M28.5,63c-0.8,0-1.5-0.7-1.5-1.5s0.7-1.5,1.5-1.5h5c0.6,0,1.1,0.3,1.3,0.8L43.8,50h-3.3 c-0.8,0-1.5-0.7-1.5-1.5s0.7-1.5,1.5-1.5h5.7l8.2-10h-14c-0.8,0-1.5-0.7-1.5-1.5s0.7-1.5,1.5-1.5h16.4l16.4-20H61v2.5 c0,0.8-0.7,1.5-1.5,1.5h-18c-0.8,0-1.5-0.7-1.5-1.5V14H23v61.3L33.1,63H28.5z M28.5,34h5c0.8,0,1.5,0.7,1.5,1.5S34.3,37,33.5,37h-5 c-0.8,0-1.5-0.7-1.5-1.5S27.7,34,28.5,34z M28.5,47h5c0.8,0,1.5,0.7,1.5,1.5S34.3,50,33.5,50h-5c-0.8,0-1.5-0.7-1.5-1.5 S27.7,47,28.5,47z"></path> <polygon class="st0" points="51.4,47 59.7,37 59.6,37 51.4,47 "></polygon> <polygon class="st0" points="62.1,34 78.6,14 78.6,14 62.1,34 "></polygon> <polygon class="st0" points="49,50 48.9,50 40.7,60 40.8,60 "></polygon> <path class="st1" d="M78.6,14l2.4-2.9c0,0,0,0,0,0L78.6,14L78.6,14z"></path> <path class="st1" d="M23,14h17v2.5c0,0.8,0.7,1.5,1.5,1.5h18c0.8,0,1.5-0.7,1.5-1.5V14h12.4l2.5-3H61V7.5C61,6.7,60.3,6,59.5,6h-18 C40.7,6,40,6.7,40,7.5V11H21.5c-0.8,0-1.5,0.7-1.5,1.5v66.4l3-3.6V14z M43,9h15v6H43V9z"></path> <path class="st1" d="M79,19v64H26.4l-2.5,3h56.6c0.8,0,1.5-0.7,1.5-1.5V15.4L79,19z"></path> <path class="st1" d="M23,81.5l-2.9,3.5c0,0,0,0,0,0L23,81.5L23,81.5z"></path> <path class="st1" d="M28.5,37h5c0.8,0,1.5-0.7,1.5-1.5S34.3,34,33.5,34h-5c-0.8,0-1.5,0.7-1.5,1.5S27.7,37,28.5,37z"></path> <polygon class="st1" points="59.6,37 59.7,37 62.1,34 62.1,34 "></polygon> <path class="st1" d="M40.5,34c-0.8,0-1.5,0.7-1.5,1.5s0.7,1.5,1.5,1.5h14l2.5-3H40.5z"></path> <path class="st1" d="M73.5,37c0.8,0,1.5-0.7,1.5-1.5S74.3,34,73.5,34h-6.8l-2.5,3H73.5z"></path> <path class="st1" d="M28.5,50h5c0.8,0,1.5-0.7,1.5-1.5S34.3,47,33.5,47h-5c-0.8,0-1.5,0.7-1.5,1.5S27.7,50,28.5,50z"></path> <path class="st1" d="M40.5,47c-0.8,0-1.5,0.7-1.5,1.5s0.7,1.5,1.5,1.5h3.3l2.5-3H40.5z"></path> <polygon class="st1" points="51.4,47 51.4,47 48.9,50 49,50 "></polygon> <path class="st1" d="M73.5,50c0.8,0,1.5-0.7,1.5-1.5S74.3,47,73.5,47H56l-2.5,3H73.5z"></path> <path class="st1" d="M33.5,60h-5c-0.8,0-1.5,0.7-1.5,1.5s0.7,1.5,1.5,1.5h4.6l1.8-2.2C34.6,60.3,34.1,60,33.5,60z"></path> <path class="st1" d="M40.7,60l-1.6,2c0,0,0,0,0,0L40.7,60L40.7,60z"></path> <path class="st1" d="M73.5,63c0.8,0,1.5-0.7,1.5-1.5S74.3,60,73.5,60H45.3l-2.5,3H73.5z"></path> <polygon class="st1" points="51.4,47 56,47 64.2,37 59.7,37 "></polygon> <polygon class="st1" points="40.8,60 45.3,60 53.5,50 49,50 "></polygon> <path class="st1" d="M82,12.5v2.9l6.2-7.5l-2.7-2.2L81,11.1C81.6,11.3,82,11.8,82,12.5z"></path> <polygon class="st1" points="78.6,14 62.1,34 66.7,34 79,19 79,14 "></polygon> <path class="st1" d="M40.5,63c-0.6,0-1.2-0.4-1.4-1L23,81.6V83h3.4l16.4-20H40.5z"></path> <path class="st1" d="M20.1,85.1l-4.5,5.5l2.7,2.2l5.6-6.8h-2.4C20.9,86,20.4,85.6,20.1,85.1z"></path> <path class="st1" d="M23,83v-1.4l-2.9,3.5c0.2,0.5,0.8,0.9,1.4,0.9h2.4l2.5-3H23z"></path> <path class="st1" d="M79,14v5l3-3.6v-2.9c0-0.7-0.4-1.2-1-1.4L78.6,14H79z"></path> <polygon class="st1" points="64.2,37 66.7,34 62.1,34 59.7,37 "></polygon> <polygon class="st1" points="49,50 53.5,50 56,47 51.4,47 "></polygon> <path class="st1" d="M39.1,62c0.2,0.6,0.8,1,1.4,1h2.3l2.5-3h-4.5L39.1,62z"></path> </g> </svg> 