<?xml version="1.0" encoding="UTF-8"?> <!-- Generator: Adobe Illustrator 24.2.0, SVG Export Plug-In . SVG Version: 6.00 Build 0) --> <svg xmlns="http://www.w3.org/2000/svg" xmlns:xlink="http://www.w3.org/1999/xlink" id="Layer_1" x="0px" y="0px" viewBox="0 0 288.1 268.2" style="enable-background:new 0 0 288.1 268.2;" xml:space="preserve"> <style type="text/css"> .st0{fill:#F6F6F6;} .st1{fill:#D0D0D0;} .st2{fill:#C8CDD4;} .st3{fill:#8591A2;} .st4{fill:#E8ECEE;} .st5{fill:#CC8C5E;} .st6{fill:#F2C096;} .st7{fill:#A0ABB9;} .st8{fill:#FFFFFF;} .st9{fill:#469B64;} .st10{fill:#5ECC77;} .st11{fill:#33786E;} .st12{fill:#E04A3F;} .st13{fill:#EC5F40;} .st14{fill:#B32544;} .st15{fill:#F1A148;} .st16{fill:#F8D749;} .st17{fill:#EF8643;} .st18{fill:#C1832D;} .st19{fill:#222937;} .st20{fill:#57ACF7;} .st21{fill:#2D4360;} .st22{fill:#E9C347;} .st23{opacity:0.15;} .st24{fill:#FC5400;} .st25{fill:#D0D7DA;} .st26{fill:#F9F9F9;} .st27{fill:#495A63;} .st28{fill:#93A3AC;} .st29{fill:#F9DF8E;} </style> <path class="st29" d="M194.1,165.2c-3.6-7.4-16.3-17.7-28.6-27.7c-6.9-5.5-13.3-10.8-17.5-14.9l-18.9-18.9c-0.7-0.7-1.7-1.1-2.7-1.1 h-34c-1.7,0-3.2,1.2-3.7,2.9l-11.3,45.3c-0.3,1.4,0.1,2.9,1.2,3.8c1.2,1,3.5,3.4,6,6c3.4,3.5,6.8,7.2,9.2,9.1 c14.1,11.8,31,24.5,34.4,26.7c4,2.6,8.6,4.1,13.4,4.4c3.1,0.2,6.1-0.7,8.6-2.5c2.8,1.1,5.8,1,8.6-0.1c3.4-1.4,6.2-3.9,7.9-7.3 c3.2,0.6,6.6,0.1,9.5-1.4c2.8-1.3,5.1-3.7,6.3-6.6c3.2,0.1,6.3-1,8.7-3.1C195.4,176.3,196.7,170.2,194.1,165.2z"></path> <path class="st29" d="M205.6,158.1l-15.1-44.6c-0.4-1.1-1.2-2-2.3-2.4c-0.2-0.1-15.1-5.3-29.9-11.9c-17.3-7.8-26.8-2.6-40.4,10.9 c-5.2,5.2-12.2,15.6-10.4,23.3c0.8,3.3,3.3,5.9,6.5,6.8c8.3,2.9,17.5-0.2,22.2-7.6c2-0.3,3.9-0.9,5.7-1.8c0.8-0.3,1.6-0.7,2.7-1.2 l47.7,36.1c1.3,1.2,3.2,1.3,4.6,0.3l7.3-3.6C205.6,161.5,206.2,159.7,205.6,158.1z"></path> <path class="st24" d="M95.1,96.1c-6.5-6.1-32.4-8.1-40.2-8.6c-1,0-2,0.3-2.8,1c-0.8,0.7-1.2,1.7-1.2,2.8v68c0,2.1,1.7,3.8,3.8,3.8 h22.7c1.6,0,3.1-1.1,3.6-2.6c6.7-20,11.8-40.5,15.3-61.3C96.3,98,95.9,96.9,95.1,96.1z"></path> <path class="st25" d="M228.5,95c-16-0.6-31.9,2.1-46.9,7.9c-1.9,0.9-2.7,3.1-1.8,5c0.1,0.1,0.1,0.3,0.2,0.4 c8.6,19.3,16,39.2,22.1,59.5c0.5,1.6,1.9,2.8,3.6,2.8h22.7c2.1,0,3.8-1.7,3.8-3.7c0,0,0,0,0,0v-68C232.3,96.7,230.6,95,228.5,95z"></path> <path d="M141.6,200.9c-4.8-0.3-9.4-1.9-13.4-4.4c-3.4-2.2-20.3-15-34.4-26.7c-2.3-2-5.8-5.6-9.2-9.1c-2.5-2.6-4.8-5-6-6 c-1.6-1.4-1.7-3.8-0.4-5.3c1.3-1.5,3.7-1.7,5.2-0.4c1.3,1.1,3.8,3.7,6.5,6.6c3.1,3.2,6.6,6.8,8.6,8.5c14.4,12,31,24.4,33.7,26.2 c2.8,1.7,6,2.8,9.3,3.2c3.5,0,3.9-0.9,4-1.3c0.7-2,2.9-3,4.8-2.3c0.5,0.2,0.9,0.4,1.3,0.8c1.2,1.1,2.9,1.3,4.3,0.7 c2.4-1,4.1-3.2,4.5-5.8c0.2-2.1,2-3.6,4.1-3.4c0.8,0.1,1.6,0.4,2.2,1c1.8,1,4.1,1,5.9-0.1c1.8-0.7,2.9-2.4,2.9-4.3 c-0.2-2.1,1.3-3.9,3.4-4.2c0.9-0.1,1.8,0.1,2.5,0.6c1.6,0.7,3.4,0.3,4.7-0.9c1.7-1.4,2.2-3.8,1.1-5.7c-2.8-5.9-15.4-16.1-26.6-25.1 c-6.1-5-12-9.7-16.3-13.7c-1.1,0.4-1.9,0.8-2.6,1.1c-1.8,0.9-3.7,1.5-5.7,1.8c-4.7,7.4-13.9,10.5-22.2,7.6c-3.2-0.9-5.7-3.5-6.5-6.8 c-1.8-7.7,5.2-18.1,10.4-23.3c13.6-13.6,23.1-18.7,40.4-10.9c14.9,6.7,29.8,11.9,29.9,11.9c2,0.6,3.1,2.7,2.5,4.7 c-0.6,2-2.7,3.1-4.7,2.5c-0.1,0-0.2-0.1-0.3-0.1c-0.2-0.1-15.4-5.4-30.5-12.2c-13.4-6-19.7-2.9-32,9.4c-4.7,4.2-7.7,9.9-8.4,16.2 c0.1,0.5,0.3,1,1.5,1.4c5.7,2.1,12.1-0.5,14.6-6c0.6-1,1.6-1.6,2.8-1.7c1.8-0.1,3.5-0.6,5.1-1.4c1.2-0.6,2.8-1.3,5.4-2.2 c1.4-0.5,2.9-0.2,4,0.9c4.1,4.1,10.6,9.4,17.5,14.9c12.3,10,25,20.2,28.6,27.7c2.5,5,1.3,11.1-3,14.7c-2.4,2.1-5.5,3.2-8.7,3.1 c-1.2,2.9-3.5,5.2-6.3,6.6c-2.9,1.5-6.3,2-9.5,1.4c-1.6,3.3-4.4,5.9-7.9,7.3c-2.8,1.1-5.8,1.1-8.6,0.1 C147.7,200.1,144.7,201.1,141.6,200.9z"></path> <path d="M126.5,110.2h-34c-2.1,0-3.8-1.7-3.8-3.8c0-2.1,1.7-3.8,3.8-3.8h34c2.1,0,3.8,1.7,3.8,3.8 C130.3,108.5,128.6,110.2,126.5,110.2z"></path> <path d="M191,170.5c-2.1,0-3.8-1.7-3.8-3.8c0-1.3,0.6-2.4,1.7-3.1l11.1-7.4c1.7-1.2,4.1-0.7,5.2,1c1.2,1.7,0.7,4.1-1,5.2l-11.1,7.4 C192.5,170.3,191.8,170.5,191,170.5z"></path> <path d="M179.4,182c-0.8,0-1.7-0.3-2.3-0.8c-4-3.1-21.1-21-23.1-23c-1.4-1.5-1.4-3.9,0.1-5.3s3.9-1.4,5.3,0.1 c7.5,7.8,19.6,20.2,22.3,22.3c1.6,1.3,1.9,3.7,0.6,5.3C181.6,181.4,180.5,182,179.4,182z"></path> <path d="M164.3,189.5c-0.9,0-1.7-0.3-2.4-0.8c-5.6-4.5-19.2-19.1-19.3-19.3c-1.4-1.5-1.3-3.9,0.2-5.3c1.5-1.4,3.9-1.3,5.3,0.2 c2.6,2.8,13.9,14.9,18.5,18.5c1.6,1.3,1.9,3.7,0.6,5.3C166.5,189,165.4,189.5,164.3,189.5z"></path> <path d="M149.2,197.1c-0.9,0-1.8-0.3-2.4-0.9c-5.7-4.8-17-16.8-19.2-19.2c-1.4-1.5-1.3-3.9,0.2-5.3c1.5-1.4,3.9-1.3,5.3,0.2 c2.2,2.3,13.2,14,18.6,18.6c1.6,1.3,1.8,3.7,0.4,5.3C151.3,196.6,150.3,197.1,149.2,197.1z"></path> <path d="M77.4,163.1H54.7c-2.1,0-3.8-1.7-3.8-3.8v-68c0-1,0.4-2,1.2-2.8c0.8-0.7,1.8-1.1,2.8-1c7.8,0.5,33.7,2.4,40.2,8.6 c0.8,0.8,1.3,1.9,1.2,3.1c-3.5,20.8-8.6,41.3-15.3,61.3C80.5,162,79,163.1,77.4,163.1z M58.5,155.5h16.1 c5.9-17.9,10.6-36.3,13.9-54.8c-9.7-3.1-19.8-4.9-30-5.4V155.5z"></path> <path d="M228.5,170.6h-22.7c-1.7,0-3.2-1.1-3.6-2.8c-6.1-20.3-13.5-40.1-22.1-59.5c-1.1-1.8-0.6-4.1,1.2-5.2 c0.1-0.1,0.3-0.1,0.4-0.2c14.9-5.8,30.8-8.5,46.8-7.9c2.1,0,3.8,1.7,3.8,3.8v68C232.3,168.9,230.6,170.6,228.5,170.6z M208.7,163.1 h16.1v-60.4c-12.3,0.1-24.4,2-36.1,5.7C194.5,121,205.1,151.4,208.7,163.1z"></path> </svg> 