<?xml version="1.0" encoding="UTF-8"?> <!-- Generator: Adobe Illustrator 24.2.0, SVG Export Plug-In . SVG Version: 6.00 Build 0) --> <svg xmlns="http://www.w3.org/2000/svg" xmlns:xlink="http://www.w3.org/1999/xlink" id="Layer_1" x="0px" y="0px" viewBox="0 0 288.1 268.2" style="enable-background:new 0 0 288.1 268.2;" xml:space="preserve"> <style type="text/css"> .st0{fill:#F6F6F6;} .st1{fill:#D0D0D0;} .st2{fill:#C8CDD4;} .st3{fill:#8591A2;} .st4{fill:#E8ECEE;} .st5{fill:#CC8C5E;} .st6{fill:#F2C096;} .st7{fill:#A0ABB9;} .st8{fill:#FFFFFF;} .st9{fill:#469B64;} .st10{fill:#5ECC77;} .st11{fill:#33786E;} .st12{fill:#E04A3F;} .st13{fill:#EC5F40;} .st14{fill:#B32544;} .st15{fill:#F1A148;} .st16{fill:#F8D749;} .st17{fill:#EF8643;} .st18{fill:#C1832D;} .st19{fill:#222937;} .st20{fill:#57ACF7;} .st21{fill:#2D4360;} .st22{fill:#E9C347;} .st23{opacity:0.15;} .st24{fill:#FC5400;} .st25{fill:#D0D7DA;} .st26{fill:#F9F9F9;} .st27{fill:#495A63;} .st28{fill:#93A3AC;} .st29{fill:#F9DF8E;} </style> <path class="st25" d="M201.6,43.9h-83.1c-2.1,0-3.8,1.7-3.8,3.8v41.6H73.1c-2.1,0-3.8,1.7-3.8,3.8v113.4c0,2.1,1.7,3.8,3.8,3.8 h128.5c2.1,0,3.8-1.7,3.8-3.8V47.7C205.4,45.6,203.7,43.9,201.6,43.9z"></path> <path class="st25" d="M119.9,44.2c-1.4-0.6-3-0.3-4.1,0.8L70.5,90.4c-1.5,1.5-1.5,3.9,0,5.3c0.7,0.7,1.7,1.1,2.7,1.1h45.3 c2.1,0,3.8-1.7,3.8-3.8V47.7C122.3,46.2,121.4,44.8,119.9,44.2z"></path> <g> <path class="st28" d="M126.1,127.1H88.3c-2.1,0-3.8-1.7-3.8-3.8s1.7-3.8,3.8-3.8h37.8c2.1,0,3.8,1.7,3.8,3.8 S128.1,127.1,126.1,127.1z"></path> <path class="st28" d="M171.4,157.3H88.3c-2.1,0-3.8-1.7-3.8-3.8c0-2.1,1.7-3.8,3.8-3.8h83.1c2.1,0,3.8,1.7,3.8,3.8 C175.2,155.6,173.5,157.3,171.4,157.3z"></path> <path class="st28" d="M118.5,187.5H88.3c-2.1,0-3.8-1.7-3.8-3.8s1.7-3.8,3.8-3.8h30.2c2.1,0,3.8,1.7,3.8,3.8 C122.3,185.8,120.6,187.5,118.5,187.5z"></path> </g> <path class="st24" d="M234.6,173.5l-15.1-15.1c-1.5-1.5-3.9-1.5-5.3,0l-45.3,45.3c-0.7,0.7-1.1,1.7-1.1,2.7v15.1 c0,2.1,1.7,3.8,3.8,3.8h15.1c1,0,2-0.4,2.7-1.1l45.3-45.3C236,177.4,236,175,234.6,173.5C234.6,173.5,234.6,173.5,234.6,173.5z"></path> <path class="st25" d="M249.7,158.4l-15.1-15.1c-1.5-1.5-3.9-1.5-5.3,0l-15.1,15.1c-1.5,1.5-1.5,3.9,0,5.3l15.1,15.1 c1.5,1.5,3.9,1.5,5.3,0l15.1-15.1C251.1,162.3,251.1,159.9,249.7,158.4z"></path> <path d="M186.5,225.3h-15.1c-2.1,0-3.8-1.7-3.8-3.8v-15.1c0-1,0.4-2,1.1-2.7l60.5-60.5c1.5-1.5,3.9-1.5,5.3,0l15.1,15.1 c1.5,1.5,1.5,3.9,0,5.3l-60.5,60.5C188.5,224.9,187.5,225.3,186.5,225.3z M175.2,217.8h9.8l56.7-56.7l-9.8-9.8L175.2,208 L175.2,217.8L175.2,217.8z"></path> <path d="M231.9,180c-1,0-2-0.4-2.7-1.1l-15.1-15.1c-1.5-1.5-1.4-3.9,0.1-5.3c1.5-1.4,3.8-1.4,5.3,0l15.1,15.1c1.5,1.5,1.5,3.9,0,5.3 C233.8,179.6,232.9,180,231.9,180z"></path> <path d="M152.5,210.2H73.1c-2.1,0-3.8-1.7-3.8-3.8V93c0-1,0.4-2,1.1-2.7L115.8,45c0.7-0.7,1.7-1.1,2.7-1.1h83.1 c2.1,0,3.8,1.7,3.8,3.8v105.8c0,2.1-1.7,3.8-3.8,3.8s-3.8-1.7-3.8-3.8v-102h-77.8L76.9,94.6v108h75.6c2.1,0,3.8,1.7,3.8,3.8 C156.3,208.5,154.6,210.2,152.5,210.2z"></path> <path d="M118.5,96.8H73.1c-2.1,0-3.8-1.7-3.8-3.8c0-2.1,1.7-3.8,3.8-3.8h41.6V47.7c0-2.1,1.7-3.8,3.8-3.8c2.1,0,3.8,1.7,3.8,3.8V93 C122.3,95.1,120.6,96.8,118.5,96.8z"></path> <path d="M126.1,127.1H88.3c-2.1,0-3.8-1.7-3.8-3.8s1.7-3.8,3.8-3.8h37.8c2.1,0,3.8,1.7,3.8,3.8S128.1,127.1,126.1,127.1z"></path> <path d="M171.4,157.3H88.3c-2.1,0-3.8-1.7-3.8-3.8c0-2.1,1.7-3.8,3.8-3.8h83.1c2.1,0,3.8,1.7,3.8,3.8 C175.2,155.6,173.5,157.3,171.4,157.3z"></path> <path d="M118.5,187.5H88.3c-2.1,0-3.8-1.7-3.8-3.8s1.7-3.8,3.8-3.8h30.2c2.1,0,3.8,1.7,3.8,3.8C122.3,185.8,120.6,187.5,118.5,187.5 z"></path> </svg> 