<?xml version="1.0" encoding="UTF-8"?> <!-- Generator: Adobe Illustrator 24.2.0, SVG Export Plug-In . SVG Version: 6.00 Build 0) --> <svg xmlns="http://www.w3.org/2000/svg" xmlns:xlink="http://www.w3.org/1999/xlink" id="Layer_1" x="0px" y="0px" viewBox="0 0 100.8 100.7" style="enable-background:new 0 0 100.8 100.7;" xml:space="preserve"> <style type="text/css"> .st0{fill:#F15A29;} </style> <g> <path class="st0" d="M79.2,41.7c0-0.1-0.1-0.2-0.1-0.2l-9.1-18.9c-0.2-0.5-0.8-0.9-1.4-0.9H31.2c-0.6,0-1.1,0.3-1.4,0.9l-9,18.9 c0,0,0,0,0,0c-4.6,1.2-8.1,5.4-8.1,10.4v6.7c0,4.9,3.3,9,7.7,10.3v9.6c0,1.8,1.7,3.3,3.8,3.3h4.7c2.1,0,3.8-1.5,3.8-3.3v-9.2h34.6 v9.2c0,1.8,1.7,3.3,3.8,3.3h4.7c2.1,0,3.8-1.5,3.8-3.3v-9.9c4.1-1.5,7-5.5,7-10.1v-6.7C86.6,47.2,83.5,43.2,79.2,41.7z M32.1,24.7 h35.7l7.9,16.5H24.3L32.1,24.7z M29.7,78.5c0,0.1-0.3,0.3-0.8,0.3h-4.7c-0.5,0-0.7-0.2-0.8-0.3v-9.2c0,0,0,0,0,0h6.2L29.7,78.5z M76.5,78.5c0,0.1-0.3,0.3-0.8,0.3h-4.7c-0.5,0-0.7-0.2-0.8-0.3v-9.2h5.5c0.2,0,0.5,0,0.7,0L76.5,78.5z M83.6,58.6 c0,4.3-3.5,7.8-7.8,7.8H23.5c-4.3,0-7.8-3.5-7.8-7.8v-6.7c0-4.3,3.5-7.8,7.8-7.8h52.3c4.3,0,7.8,3.5,7.8,7.8 C83.6,51.9,83.6,58.6,83.6,58.6z"></path> <path class="st0" d="M26.6,49.3c-3.2,0-5.9,2.6-5.9,5.9c0,3.2,2.6,5.9,5.9,5.9s5.9-2.6,5.9-5.9C32.5,52,29.8,49.3,26.6,49.3z M26.6,58.1c-1.6,0-2.9-1.3-2.9-2.9c0-1.6,1.3-2.9,2.9-2.9s2.9,1.3,2.9,2.9C29.5,56.8,28.2,58.1,26.6,58.1z"></path> <path class="st0" d="M73.4,49c-3.2,0-5.9,2.6-5.9,5.9c0,3.2,2.6,5.9,5.9,5.9c3.2,0,5.9-2.6,5.9-5.9C79.3,51.6,76.7,49,73.4,49z M73.4,57.7c-1.6,0-2.9-1.3-2.9-2.9c0-1.6,1.3-2.9,2.9-2.9c1.6,0,2.9,1.3,2.9,2.9C76.3,56.5,75,57.7,73.4,57.7z"></path> <path class="st0" d="M56.5,56.3H42.9c-0.8,0-1.5,0.7-1.5,1.5s0.7,1.5,1.5,1.5h13.6c0.8,0,1.5-0.7,1.5-1.5S57.3,56.3,56.5,56.3z"></path> </g> </svg> 