<?xml version="1.0" encoding="UTF-8"?> <!-- Generator: Adobe Illustrator 17.1.0, SVG Export Plug-In . SVG Version: 6.00 Build 0) --> <svg xmlns="http://www.w3.org/2000/svg" xmlns:xlink="http://www.w3.org/1999/xlink" id="Layer_1" x="0px" y="0px" viewBox="0 0 1930 400" xml:space="preserve"> <path fill="#F6F6F6" d="M1028,0.5c1.6,6.1,2.8,12.4,4.8,18.4c9.3,27.9,18.3,56,28.5,83.7c6.2,17,14.2,33.3,21.7,49.8 c14.8,32.5,32.1,63.6,52.9,92.6c9.5,13.3,20.1,25.9,30.6,38.5c16.4,19.6,35.7,35.8,57.3,49.5c17.1,10.9,35.6,18.6,55.1,23.5 c17.5,4.4,35.2,8.4,52.9,11.9c12,2.4,24.3,3.6,36.4,5.2c12.7,1.7,25.3,3.5,38,4.9c8.3,1,16.7,1.4,25.1,2.1 c14.7,1.3,29.5,2.7,44.2,3.9c5.3,0.5,10.5,0.8,15.8,1c8.6,0.4,17.2,0.7,25.8,1c15.9,0.7,31.7,1.3,47.6,2c6.4,0.3,12.9,0.8,19.3,1 c15.3,0.4,30.5,0.7,45.8,1c18.4,0.4,36.9,0.6,55.3,1c9.6,0.2,19.1,0.9,28.7,1.9c-1.6,0-3.2,0-4.9,0c-22.2,0-44.3-0.1-66.5,0 c-35.3,0.2-70.5,0.6-105.8,1c-32.8,0.3-65.5,0.7-98.3,1c-34.9,0.3-69.9,0.6-104.8,1c-28.4,0.3-56.9,0.7-85.3,1 c-38.8,0.4-77.5,0.7-116.3,1.1c-1.3,0-2.7,0.6-4,1c-67.7,0-135.3,0-203,0c-1.3-0.3-2.7-1-4-1c-63.1-0.4-126.2-0.7-189.3-1.1 c-36.9-0.2-73.9-0.6-110.8-1c-33.9-0.3-67.9-0.7-101.8-1c-34.4-0.3-68.9-0.6-103.3-1c-26.9-0.3-53.9-0.7-80.8-1 c-1.3,0-2.6-0.1-3.9-0.7c0.8-0.1,1.5-0.2,2.3-0.2c24.4-0.3,48.9-0.6,73.3-1c13.8-0.2,27.5-0.6,41.3-1c17.2-0.6,34.4-1.2,51.6-2 c13.2-0.6,26.4-1.2,39.6-2c15.5-0.9,31-1.9,46.4-3c15.4-1.2,30.8-2.4,46.2-4c17.5-1.8,34.9-3.5,52.3-6.1 c36.1-5.4,72.3-10.8,107-22.9c21.2-7.3,40.5-18.3,57.7-32.5c11.8-9.8,23.5-19.9,34-31.1c19.1-20.3,36.2-42.4,50.1-66.6 c12.8-22.2,25.9-44.4,36.9-67.5c11.9-24.8,22.3-50.4,31.9-76.1c8.9-24.1,15.9-48.9,23.8-73.3c0.3-0.9,0.3-1.9,0.4-2.9 C1026.7,0.5,1027.3,0.5,1028,0.5z"></path> </svg> 