<?xml version="1.0" encoding="UTF-8"?> <!-- Generator: Adobe Illustrator 24.2.0, SVG Export Plug-In . SVG Version: 6.00 Build 0) --> <svg xmlns="http://www.w3.org/2000/svg" xmlns:xlink="http://www.w3.org/1999/xlink" id="Layer_1" x="0px" y="0px" viewBox="0 0 100.8 100.8" style="enable-background:new 0 0 100.8 100.8;" xml:space="preserve"> <style type="text/css"> .st0{fill:#F15A29;} </style> <g> <path class="st0" d="M12.4,77.6c-0.8,0-1.5,0.7-1.5,1.5s0.6,1.5,1.5,1.5h74.8c0.8,0,1.5-0.7,1.5-1.5s-0.7-1.5-1.5-1.5H79V34.7h8.1 c0.8,0,1.5-0.7,1.5-1.5s-0.7-1.5-1.5-1.5H20.7c-0.1,0-0.3-0.1-0.4-0.1s-0.3,0-0.4,0.1h-7.5c-0.8,0-1.5,0.7-1.5,1.5s0.6,1.5,1.5,1.5 h6.5v42.9H12.4z M41.4,77.6V34.7h16.1v42.9H41.4z M76.1,77.6H60.4V34.7h15.7V77.6z M21.7,34.7h16.8v42.9H21.7V34.7z"></path> <path class="st0" d="M95.9,89.4H3.5c-0.8,0-1.5,0.7-1.5,1.5s0.7,1.5,1.5,1.5h92.4c0.8,0,1.5-0.7,1.5-1.5S96.7,89.4,95.9,89.4z"></path> <path class="st0" d="M97.2,31.8L51,5.4c-0.4-0.3-1-0.3-1.4,0L3.1,31.8c-0.7,0.4-0.9,1.3-0.5,2c0.3,0.5,0.8,0.7,1.3,0.7 c0.2,0,0.5-0.1,0.7-0.2l45.8-26l45.5,26c0.7,0.4,1.6,0.2,2-0.5C98.1,33.1,97.9,32.2,97.2,31.8z"></path> </g> </svg> 