<?xml version="1.0" encoding="UTF-8"?> <!-- Generator: Adobe Illustrator 24.2.0, SVG Export Plug-In . SVG Version: 6.00 Build 0) --> <svg xmlns="http://www.w3.org/2000/svg" xmlns:xlink="http://www.w3.org/1999/xlink" id="Layer_1" x="0px" y="0px" viewBox="0 0 288.1 268.2" style="enable-background:new 0 0 288.1 268.2;" xml:space="preserve"> <style type="text/css"> .st0{fill:#F6F6F6;} .st1{fill:#D0D0D0;} .st2{fill:#C8CDD4;} .st3{fill:#8591A2;} .st4{fill:#E8ECEE;} .st5{fill:#CC8C5E;} .st6{fill:#F2C096;} .st7{fill:#A0ABB9;} .st8{fill:#FFFFFF;} .st9{fill:#469B64;} .st10{fill:#5ECC77;} .st11{fill:#33786E;} .st12{fill:#E04A3F;} .st13{fill:#EC5F40;} .st14{fill:#B32544;} .st15{fill:#F1A148;} .st16{fill:#F8D749;} .st17{fill:#EF8643;} .st18{fill:#C1832D;} .st19{fill:#222937;} .st20{fill:#57ACF7;} .st21{fill:#2D4360;} .st22{fill:#E9C347;} .st23{opacity:0.15;} .st24{fill:#FC5400;} .st25{fill:#D0D7DA;} .st26{fill:#F9F9F9;} .st27{fill:#495A63;} .st28{fill:#93A3AC;} .st29{fill:#F9DF8E;} </style> <g> <path class="st27" d="M154.8,90.4c-2.1,0-3.8-1.7-3.8-3.8c0-1,0.4-2,1.1-2.7l37.8-37.8c1.5-1.5,3.9-1.5,5.3,0l7.6,7.6 c1.5,1.5,1.5,3.8,0.1,5.3c-1.5,1.5-3.8,1.5-5.3,0.1c0,0-0.1-0.1-0.1-0.1l-4.9-4.9l-35.1,35.1C156.7,90,155.8,90.4,154.8,90.4z"></path> <path class="st27" d="M222.8,82.8c-1,0-2-0.4-2.7-1.1l-7.6-7.6c-1.5-1.5-1.4-3.9,0.1-5.3c1.5-1.4,3.8-1.4,5.3,0l7.6,7.6 c1.5,1.5,1.5,3.9,0,5.3C224.7,82.4,223.8,82.8,222.8,82.8z"></path> </g> <path class="st25" d="M71.6,120.6h143.6c10.4,0,18.9,8.5,18.9,18.9V200c0,10.4-8.5,18.9-18.9,18.9H71.6c-10.4,0-18.9-8.5-18.9-18.9 v-60.5C52.7,129.1,61.2,120.6,71.6,120.6z"></path> <g> <path class="st24" d="M229.9,41.7c-5.7-5.5-14.7-5.5-20.4,0l-12,12c-1.5,1.5-1.5,3.9,0,5.3l15.1,15.1c1.5,1.5,3.9,1.5,5.3,0l12-12 C235.5,56.5,235.5,47.3,229.9,41.7C229.9,41.7,229.9,41.7,229.9,41.7z"></path> <path class="st25" d="M112.1,174.6L97,159.5c-1.5-1.5-3.9-1.5-5.3,0c-0.3,0.3-0.5,0.6-0.7,1l-15.1,30.2c-0.9,1.9-0.2,4.1,1.7,5.1 c1.1,0.5,2.3,0.5,3.4,0l30.2-15.1c1.9-0.9,2.6-3.2,1.7-5.1C112.6,175.3,112.4,174.9,112.1,174.6L112.1,174.6z"></path> </g> <path class="st24" d="M217.9,69l-15.1-14.7c-1.5-1.4-3.9-1.4-5.3,0l-105.2,105c-1.5,1.4-1.5,3.8,0,5.2l15.1,14.7 c1.5,1.4,3.9,1.4,5.3,0l105.2-105C219.4,72.7,219.4,70.4,217.9,69z"></path> <g> <path class="st28" d="M207.7,150.9h-45.3c-2.1,0-3.8-1.7-3.8-3.8s1.7-3.8,3.8-3.8h45.3c2.1,0,3.8,1.7,3.8,3.8 S209.8,150.9,207.7,150.9z"></path> <path class="st28" d="M207.7,173.5h-68c-2.1,0-3.8-1.7-3.8-3.8s1.7-3.8,3.8-3.8h68c2.1,0,3.8,1.7,3.8,3.8S209.8,173.5,207.7,173.5z "></path> <path class="st28" d="M207.7,196.2H117c-2.1,0-3.8-1.7-3.8-3.8s1.7-3.8,3.8-3.8h90.7c2.1,0,3.8,1.7,3.8,3.8 S209.8,196.2,207.7,196.2z"></path> </g> <path d="M215.2,218.9H71.6c-10.4,0-18.9-8.5-18.9-18.9v-60.5c0-10.4,8.5-18.9,18.9-18.9h37.8c2.1,0,3.8,1.7,3.8,3.8 s-1.7,3.8-3.8,3.8H71.6c-6.3,0-11.3,5.1-11.3,11.3V200c0,6.3,5.1,11.3,11.3,11.3h143.6c6.3,0,11.3-5.1,11.3-11.3v-60.5 c0-6.3-5.1-11.3-11.3-11.3H185c-2.1,0-3.8-1.7-3.8-3.8s1.7-3.8,3.8-3.8h30.2c10.4,0,18.9,8.5,18.9,18.9V200 C234.1,210.4,225.7,218.9,215.2,218.9z"></path> <path d="M79.2,196.2c-2.1,0-3.8-1.7-3.8-3.8c0-0.6,0.1-1.2,0.4-1.7l15.1-30.2c0.2-0.4,0.4-0.7,0.7-1L209.4,41.7 c5.6-5.6,14.8-5.6,20.5,0c5.6,5.6,5.6,14.8,0,20.5L112.1,180c-0.3,0.3-0.6,0.5-1,0.7l-30.2,15.1C80.4,196.1,79.8,196.2,79.2,196.2z M97.4,164.5L87.6,184l19.5-9.8L224.6,56.8c2.7-2.7,2.7-7.1,0-9.8c-2.7-2.7-7.1-2.7-9.8,0L97.4,164.5z"></path> <path d="M154.8,90.4c-2.1,0-3.8-1.7-3.8-3.8c0-1,0.4-2,1.1-2.7l37.8-37.8c1.5-1.5,3.9-1.5,5.3,0l30.2,30.2c1.5,1.5,1.5,3.8,0.1,5.3 c-1.5,1.5-3.8,1.5-5.3,0.1c0,0-0.1-0.1-0.1-0.1l-27.6-27.6l-35.1,35.1C156.7,90,155.8,90.4,154.8,90.4z"></path> <path d="M109.4,181.1c-1,0-2-0.4-2.7-1.1l-15.1-15.1c-1.5-1.5-1.4-3.9,0.1-5.3c1.5-1.4,3.8-1.4,5.3,0l15.1,15.1 c1.5,1.5,1.5,3.9,0,5.3C111.4,180.7,110.4,181.1,109.4,181.1z"></path> <path d="M207.7,150.9h-45.3c-2.1,0-3.8-1.7-3.8-3.8s1.7-3.8,3.8-3.8h45.3c2.1,0,3.8,1.7,3.8,3.8S209.8,150.9,207.7,150.9z"></path> <path d="M207.7,173.5h-68c-2.1,0-3.8-1.7-3.8-3.8s1.7-3.8,3.8-3.8h68c2.1,0,3.8,1.7,3.8,3.8S209.8,173.5,207.7,173.5z"></path> <path d="M207.7,196.2H117c-2.1,0-3.8-1.7-3.8-3.8s1.7-3.8,3.8-3.8h90.7c2.1,0,3.8,1.7,3.8,3.8S209.8,196.2,207.7,196.2z"></path> </svg> 