<?xml version="1.0" encoding="UTF-8"?> <!-- Generator: Adobe Illustrator 24.2.0, SVG Export Plug-In . SVG Version: 6.00 Build 0) --> <svg xmlns="http://www.w3.org/2000/svg" xmlns:xlink="http://www.w3.org/1999/xlink" id="Layer_1" x="0px" y="0px" viewBox="0 0 101 101" style="enable-background:new 0 0 101 101;" xml:space="preserve"> <style type="text/css"> .st0{fill:#F15A29;} </style> <path class="st0" d="M67,50.5c0-0.8-0.7-1.5-1.5-1.5H52V28.5c0-0.8-0.7-1.5-1.5-1.5S49,27.7,49,28.5v22c0,0.8,0.7,1.5,1.5,1.5h15 C66.3,52,67,51.3,67,50.5z"></path> <path class="st0" d="M15.3,44.3c0.2,0,0.4-0.1,0.6-0.2L28.5,38c0.7-0.4,1-1.3,0.5-2.1c-0.4-0.6-1.2-0.9-1.9-0.6L17.6,40 C23.5,21.8,42.9,11.9,61,17.7c10.7,3.4,19.1,11.9,22.4,22.6l0,0c0.4,1.2,0.7,2.5,0.9,3.7c0.1,0.7,0.8,1.2,1.5,1.2h0.3 c0.8-0.2,1.3-0.9,1.2-1.8c-0.3-1.4-0.6-2.7-1-4l0,0C81.5,23.7,67,12.9,50.5,13c-16.1,0.1-30.4,10.4-35.6,25.7l-4.4-9.1 c-0.3-0.8-1.2-1.1-1.9-0.8s-1.1,1.2-0.8,1.9c0,0.1,0.1,0.1,0.1,0.2l6.2,12.6C14.2,44,14.7,44.3,15.3,44.3z"></path> <path class="st0" d="M93.4,71l-6.2-12.7c-0.4-0.7-1.3-1-2-0.7l-12.6,6.1c-0.7,0.4-1.1,1.3-0.7,2c0.4,0.7,1.3,1.1,2,0.7l0,0l9.1-4.4 c-6.4,18-26.1,27.3-44.1,21c-11.5-4.1-20-14-22.3-26c-0.2-0.8-1-1.4-1.8-1.2c-0.8,0.2-1.4,1-1.2,1.8l0,0 C17.4,77.9,37,91.3,57.4,87.5C70.7,85,81.7,75.5,86,62.6l4.7,9.6c0.2,0.5,0.8,0.9,1.3,0.8c0.2,0,0.4-0.1,0.7-0.2 C93.4,72.6,93.7,71.7,93.4,71z"></path> <path class="st0" d="M49,72.5v7c0,0.8,0.7,1.5,1.5,1.5s1.5-0.7,1.5-1.5v-7c0-0.8-0.7-1.5-1.5-1.5S49,71.7,49,72.5z"></path> <path class="st0" d="M33.9,64.5l-5,5c-0.5,0.6-0.5,1.6,0.2,2.1c0.6,0.5,1.4,0.5,2,0l5-5c0.5-0.6,0.5-1.6-0.2-2.1 C35.3,64,34.5,64,33.9,64.5z"></path> </svg> 