<?xml version="1.0" encoding="UTF-8"?> <!-- Generator: Adobe Illustrator 24.2.0, SVG Export Plug-In . SVG Version: 6.00 Build 0) --> <svg xmlns="http://www.w3.org/2000/svg" xmlns:xlink="http://www.w3.org/1999/xlink" id="Layer_1" x="0px" y="0px" viewBox="0 0 100.8 100.8" style="enable-background:new 0 0 100.8 100.8;" xml:space="preserve"> <style type="text/css"> .st0{fill:#F15A29;} </style> <path class="st0" d="M93.3,70.7c-0.2-5.4-1.9-11.9-4.7-18.2c-2.9-6.4-6.6-12-10.4-15.7c-4.2-4-8.2-5.5-11.2-4.2c0,0-0.1,0-0.1,0 l-3.6,1.6v-8.5c0,0,0,0,0,0c0-6.7-11.6-11.8-27-11.8c-15.3,0-26.9,5-27,11.7c0,0,0,0,0,0v15.2c0,0.1,0,0.2,0,0.2c0,0.1,0,0.2,0,0.2 c0,0.1,0,0.3,0,0.4c0,0.1,0,0.1,0,0.2v15.2c0,0.1,0,0.2,0,0.2c0,0.1,0,0.2,0,0.2c0,0.2,0,0.3,0,0.5c0,0.1,0,0.2,0,0.3v15.2 c0,0.1,0,0.2,0,0.2c0,0.1,0,0.2,0,0.2c0,6.7,11.6,11.8,27,11.8c9.8,0,18.7-2.2,23.3-5.8c4.2,5.4,8.7,8.7,12.5,8.7 c0.9,0,1.7-0.2,2.5-0.5l14.2-6.4c0,0,0,0,0,0C91.9,80.5,93.5,76.5,93.3,70.7z M53,38.8L52.6,39c-3,1.3-4.5,5-4.5,10 c-3.6,0.8-7.6,1.2-11.8,1.2c-14.2,0-24.1-4.7-24.1-8.9c0-0.1,0-0.2,0-0.2c0-0.1,0-0.2,0-0.2v-9.7c4.4,3.8,13.3,6.3,24.1,6.3 c10.8,0,19.7-2.5,24.1-6.3v4.3L53,38.8z M12.2,57.4c0-0.1,0-0.2,0-0.2V46.8c4.4,3.8,13.3,6.3,24.1,6.3c4.2,0,8.2-0.4,11.9-1.2 c0.3,3.7,1.3,7.9,3,12.4c-4.4,1.4-9.4,2.2-14.9,2.2c-14.2,0-24.1-4.7-24.1-8.9C12.2,57.6,12.2,57.5,12.2,57.4z M36.3,16.8 c14.2,0,24,4.7,24.1,8.9c0,0,0,0,0,0v0c0,4.2-9.9,8.8-24.1,8.8c-14.2,0-24.1-4.7-24.1-8.9S22.1,16.8,36.3,16.8z M36.3,82.9 c-14.2,0-24.1-4.7-24.1-8.9c0-0.1,0-0.2,0-0.2c0-0.1,0-0.2,0-0.2V63.1c4.4,3.8,13.3,6.3,24.1,6.3c5.8,0,11.2-0.8,15.9-2.4 c0.2,0.5,0.4,0.9,0.6,1.4c1.6,3.5,3.3,6.6,5.1,9.3C53.8,80.9,45.4,82.9,36.3,82.9z M73.8,85.4l-0.4,0.2c-3.8,1.7-12.1-5.4-17.9-18.3 c-5.8-12.9-5.5-23.9-1.7-25.6l9.3-4.2c-0.5,1.7-0.8,3.8-0.7,6.3c0.2,5.4,1.9,11.9,4.7,18.2c2.9,6.4,6.6,12,10.4,15.7 c1.8,1.7,3.5,2.9,5.1,3.7L73.8,85.4z M87.7,79.2C87.7,79.2,87.7,79.2,87.7,79.2L87.7,79.2c-1.9,0.9-4.9-0.4-8.1-3.6 c-3.6-3.5-7.1-8.7-9.8-14.8c-2.7-6.1-4.3-12.2-4.5-17.2c-0.2-4.5,0.8-7.6,2.8-8.4c0.4-0.2,0.8-0.3,1.3-0.3c1.8,0,4.2,1.3,6.8,3.8 c3.6,3.5,7.1,8.7,9.8,14.8c2.7,6.1,4.3,12.1,4.5,17.2C90.6,75.3,89.6,78.3,87.7,79.2z"></path> </svg> 