<?xml version="1.0" encoding="UTF-8"?> <svg xmlns="http://www.w3.org/2000/svg" width="117" height="41" viewBox="0 0 117 41" fill="none"> <path d="M31.4049 21.5216C30.2675 23.8561 28.3955 25.728 26.092 26.8342C23.7886 27.9404 21.1887 28.216 18.7136 27.6163C16.2385 27.0166 14.0332 25.5768 12.455 23.5301C10.8768 21.4835 10.0181 18.9499 10.0181 16.3398C10.0181 13.7298 10.8768 11.1962 12.455 9.14953C14.0332 7.10288 16.2385 5.66307 18.7136 5.06338C21.1887 4.4637 23.7886 4.73926 26.092 5.84544C28.3955 6.95161 30.2675 8.82359 31.4049 11.1581L35.5483 9.03009C33.9447 5.73861 31.3051 3.09926 28.0574 1.53964C24.8096 -0.0199688 21.1439 -0.40847 17.6542 0.437085C14.1645 1.28264 11.0551 3.31271 8.82991 6.1984C6.60471 9.08409 5.39404 12.6563 5.39404 16.3364C5.39404 20.0164 6.60471 23.5887 8.82991 26.4744C11.0551 29.36 14.1645 31.3901 17.6542 32.2357C21.1439 33.0812 24.8096 32.6927 28.0574 31.1331C31.3051 29.5735 33.9447 26.9341 35.5483 23.6427L31.4049 21.5216Z" fill="black"></path> <path d="M39.7011 25.7742C38.0095 29.2561 35.4117 32.1895 32.1954 34.2492C28.9792 36.3088 25.2701 37.4144 21.4792 37.4434C17.6883 37.4724 13.9635 36.4236 10.7178 34.4133C7.47196 32.403 4.83184 29.5097 3.08992 26.054L0 27.6949C2.03977 31.732 5.12776 35.1114 8.92244 37.4595C12.7171 39.8075 17.0707 41.0327 21.5015 40.9994C25.9324 40.9662 30.268 39.6758 34.0289 37.2711C37.7897 34.8663 40.8292 31.4409 42.8112 27.3736L39.7011 25.7742Z" fill="#33C369"></path> <path d="M59.6065 19.2174C59.1732 20.0094 58.5394 20.6663 57.772 21.1188C57.0047 21.5712 56.1325 21.8023 55.2476 21.7876C52.1476 21.7876 49.8992 19.4869 49.8992 16.3191C49.8992 13.1513 52.1476 10.8471 55.2476 10.8471C56.1216 10.8324 56.9835 11.0578 57.744 11.5C58.5045 11.9422 59.1359 12.5851 59.5728 13.362L59.7613 13.7075L61.3097 12.7955L61.1178 12.45C60.5164 11.4055 59.6568 10.5425 58.626 9.94862C57.5951 9.35472 56.4297 9.05095 55.2476 9.06807C51.2085 9.06807 48.1455 12.1771 48.1455 16.3018C48.1455 20.4265 51.1984 23.5321 55.2476 23.5321C56.4431 23.5501 57.6215 23.2392 58.6603 22.6317C59.6991 22.0242 60.5604 21.1423 61.1548 20.0776L61.3399 19.7321L59.795 18.8201L59.6065 19.2174Z" fill="black"></path> <path d="M65.35 14.0078V13.0786H63.667V23.3419H65.35V17.68C65.35 14.8715 67.4099 14.6504 68.0427 14.6504H68.4298V12.9473H68.0427C67.5469 12.9245 67.0519 13.007 66.5886 13.1894C66.1253 13.3719 65.7036 13.6505 65.35 14.0078Z" fill="black"></path> <path d="M74.6057 12.8716C71.6134 12.8716 69.439 15.117 69.439 18.2261C69.439 21.3351 71.6403 23.5633 74.6763 23.5633C76.5444 23.5633 78.1702 22.6927 79.0285 21.2315L79.2304 20.886L77.7393 19.9533L77.5475 20.2988C77.0426 21.2488 75.9756 21.8118 74.6965 21.8118C72.9395 21.8118 71.5965 20.7271 71.2431 19.069H79.5367V18.7028C79.5334 18.636 79.5334 18.5692 79.5367 18.5024C79.5367 18.4161 79.5367 18.3332 79.5367 18.2468C79.5367 15.6421 77.8167 12.8716 74.6057 12.8716ZM74.6057 14.5781C75.3727 14.5723 76.1156 14.853 76.6958 15.3678C77.2761 15.8827 77.6542 16.5965 77.7595 17.3763H71.233C71.3701 16.57 71.7874 15.842 72.4076 15.3275C73.0278 14.813 73.8088 14.5467 74.6057 14.5781Z" fill="black"></path> <path d="M90.1662 14.4259C89.7122 13.9247 89.1605 13.5273 88.5469 13.2595C87.9334 12.9916 87.2717 12.8594 86.6051 12.8714C85.2483 12.9068 83.9587 13.4848 83.0113 14.4822C82.0639 15.4796 81.5337 16.8174 81.5337 18.2103C81.5337 19.6032 82.0639 20.941 83.0113 21.9384C83.9587 22.9358 85.2483 23.5138 86.6051 23.5492C87.2745 23.5636 87.9394 23.4326 88.5561 23.1647C89.1727 22.8968 89.7272 22.498 90.1831 21.9947V23.342H91.8829V9.29248H90.1831L90.1662 14.4259ZM86.6455 21.8427C85.9436 21.8468 85.2563 21.6367 84.671 21.2391C84.0857 20.8415 83.6287 20.2744 83.3581 19.6097C83.0875 18.945 83.0155 18.2128 83.1512 17.506C83.2869 16.7992 83.6242 16.1498 84.1203 15.6401C84.6164 15.1305 85.2488 14.7837 85.9374 14.6437C86.6259 14.5038 87.3394 14.577 87.9873 14.8541C88.6352 15.1312 89.1883 15.5996 89.5762 16.2C89.9642 16.8003 90.1696 17.5055 90.1662 18.2258C90.1703 18.7017 90.082 19.1736 89.9065 19.614C89.731 20.0545 89.4719 20.4547 89.1442 20.7914C88.8165 21.128 88.4268 21.3943 87.9978 21.5748C87.5688 21.7553 87.1091 21.8464 86.6455 21.8427Z" fill="black"></path> <path d="M99.5676 12.8716C96.5753 12.8716 94.4043 15.117 94.4043 18.2122C94.4043 21.3075 96.609 23.5495 99.6417 23.5495C101.51 23.5495 103.139 22.6789 103.997 21.2177L104.199 20.8722L102.705 19.9533L102.513 20.2988C102.008 21.2488 100.941 21.8118 99.6619 21.8118C97.9015 21.8118 96.5619 20.7271 96.2051 19.069H104.495V18.7028C104.495 18.6371 104.495 18.5681 104.495 18.5024C104.495 18.4368 104.495 18.3332 104.495 18.2468C104.512 15.6421 102.779 12.8716 99.5676 12.8716ZM99.5676 14.5781C100.335 14.5716 101.078 14.852 101.659 15.367C102.239 15.8819 102.617 16.5962 102.722 17.3763H96.1983C96.3347 16.5702 96.7513 15.8424 97.371 15.3278C97.9906 14.8132 98.7711 14.5468 99.5676 14.5781Z" fill="black"></path> <path d="M102.022 7.75171H99.9448L97.9824 10.9506H99.7866L102.022 7.75171Z" fill="black"></path> <path d="M111.607 12.8714C110.579 12.8748 109.575 13.1906 108.722 13.7789C107.869 14.3672 107.205 15.2017 106.813 16.177C106.421 17.1524 106.32 18.225 106.521 19.2594C106.723 20.2939 107.219 21.2439 107.946 21.9897C108.673 22.7354 109.599 23.2434 110.607 23.4496C111.615 23.6559 112.66 23.5511 113.61 23.1485C114.56 22.7459 115.373 22.0635 115.945 21.1874C116.518 20.3113 116.825 19.2808 116.828 18.2259C116.835 17.5205 116.704 16.8208 116.444 16.1678C116.184 15.5148 115.8 14.9216 115.314 14.423C114.827 13.9244 114.249 13.5303 113.613 13.2639C112.976 12.9974 112.295 12.864 111.607 12.8714ZM111.607 21.8531C110.905 21.8606 110.217 21.6537 109.629 21.2587C109.042 20.8637 108.582 20.2984 108.309 19.6346C108.035 18.9709 107.96 18.2386 108.093 17.531C108.226 16.8234 108.561 16.1723 109.056 15.6605C109.55 15.1487 110.182 14.7994 110.87 14.6568C111.558 14.5143 112.272 14.585 112.921 14.8599C113.57 15.1349 114.125 15.6017 114.515 16.2011C114.905 16.8004 115.113 17.5052 115.111 18.2259C115.116 18.7004 115.028 19.1711 114.854 19.6106C114.68 20.0501 114.422 20.4497 114.096 20.7862C113.77 21.1227 113.382 21.3894 112.955 21.5708C112.528 21.7521 112.07 21.8446 111.607 21.8427V21.8531Z" fill="black"></path> </svg> 