<?xml version="1.0" encoding="UTF-8"?> <!-- Generator: Adobe Illustrator 24.2.0, SVG Export Plug-In . SVG Version: 6.00 Build 0) --> <svg xmlns="http://www.w3.org/2000/svg" xmlns:xlink="http://www.w3.org/1999/xlink" id="Layer_1" x="0px" y="0px" viewBox="0 0 288.1 268.2" style="enable-background:new 0 0 288.1 268.2;" xml:space="preserve"> <style type="text/css"> .st0{fill:#F6F6F6;} .st1{fill:#D0D0D0;} .st2{fill:#C8CDD4;} .st3{fill:#8591A2;} .st4{fill:#E8ECEE;} .st5{fill:#CC8C5E;} .st6{fill:#F2C096;} .st7{fill:#A0ABB9;} .st8{fill:#FFFFFF;} .st9{fill:#469B64;} .st10{fill:#5ECC77;} .st11{fill:#33786E;} .st12{fill:#E04A3F;} .st13{fill:#EC5F40;} .st14{fill:#B32544;} .st15{fill:#F1A148;} .st16{fill:#F8D749;} .st17{fill:#EF8643;} .st18{fill:#C1832D;} .st19{fill:#222937;} .st20{fill:#57ACF7;} .st21{fill:#2D4360;} .st22{fill:#E9C347;} .st23{opacity:0.15;} .st24{fill:#FC5400;} .st25{fill:#D0D7DA;} .st26{fill:#F9F9F9;} .st27{fill:#495A63;} .st28{fill:#93A3AC;} .st29{fill:#F9DF8E;} </style> <path class="st24" d="M98.8,41.7H182c14.6,0,26.5,11.8,26.5,26.5v128.5c0,14.6-11.8,26.5-26.5,26.5H98.8 c-14.6,0-26.5-11.8-26.5-26.5V68.2C72.4,53.5,84.2,41.7,98.8,41.7z"></path> <path class="st25" d="M98.8,56.8H182c6.3,0,11.3,5.1,11.3,11.3v37.8c0,6.3-5.1,11.3-11.3,11.3H98.8c-6.3,0-11.3-5.1-11.3-11.3V68.2 C87.5,61.9,92.6,56.8,98.8,56.8z"></path> <g> <path class="st26" d="M166.9,79.5c-0.5,0-1-0.1-1.4-0.3c-0.5-0.2-0.9-0.4-1.2-0.8c-1.5-1.4-1.5-3.7-0.1-5.2c0,0,0.1-0.1,0.1-0.1 c0.3-0.4,0.7-0.7,1.2-0.8c0.9-0.4,2-0.4,2.9,0c0.5,0.2,0.9,0.4,1.2,0.8c1.5,1.4,1.5,3.7,0.1,5.2c0,0-0.1,0.1-0.1,0.1 c-0.3,0.4-0.7,0.7-1.2,0.8C167.9,79.4,167.4,79.5,166.9,79.5z"></path> <path class="st26" d="M166.9,102.2c-0.5,0-1-0.1-1.4-0.3c-0.5-0.2-0.9-0.4-1.2-0.8c-0.7-0.7-1.1-1.6-1.1-2.6c0-0.5,0.1-1,0.3-1.4 c0.2-0.5,0.4-0.9,0.8-1.2c1.5-1.4,3.8-1.4,5.3,0c0.4,0.3,0.7,0.7,0.8,1.2c0.2,0.4,0.3,0.9,0.3,1.4c0,1-0.4,2-1.1,2.6 c-0.3,0.4-0.7,0.7-1.2,0.8C167.9,102.1,167.4,102.2,166.9,102.2z"></path> <path class="st26" d="M174.4,94.6c-2.1,0-3.8-1.7-3.8-3.8v-7.6c0-2.1,1.7-3.8,3.8-3.8s3.8,1.7,3.8,3.8v7.6 C178.2,92.9,176.5,94.6,174.4,94.6z"></path> <path class="st26" d="M159.3,94.6c-2.1,0-3.8-1.7-3.8-3.8v-7.6c0-2.1,1.7-3.8,3.8-3.8s3.8,1.7,3.8,3.8v7.6 C163.1,92.9,161.4,94.6,159.3,94.6z"></path> </g> <g> <path class="st25" d="M98.8,132.4h7.6c6.3,0,11.3,5.1,11.3,11.3v7.6c0,6.3-5.1,11.3-11.3,11.3h-7.6c-6.3,0-11.3-5.1-11.3-11.3v-7.6 C87.5,137.5,92.6,132.4,98.8,132.4z"></path> <path class="st25" d="M136.6,132.4h7.6c6.3,0,11.3,5.1,11.3,11.3v7.6c0,6.3-5.1,11.3-11.3,11.3h-7.6c-6.3,0-11.3-5.1-11.3-11.3 v-7.6C125.3,137.5,130.4,132.4,136.6,132.4z"></path> <path class="st25" d="M174.4,132.4h7.6c6.3,0,11.3,5.1,11.3,11.3v7.6c0,6.3-5.1,11.3-11.3,11.3h-7.6c-6.3,0-11.3-5.1-11.3-11.3 v-7.6C163.1,137.5,168.2,132.4,174.4,132.4z"></path> <path class="st25" d="M98.8,170.2h7.6c6.3,0,11.3,5.1,11.3,11.3v7.6c0,6.3-5.1,11.3-11.3,11.3h-7.6c-6.3,0-11.3-5.1-11.3-11.3v-7.6 C87.5,175.3,92.6,170.2,98.8,170.2z"></path> <path class="st25" d="M136.6,170.2h7.6c6.3,0,11.3,5.1,11.3,11.3v7.6c0,6.3-5.1,11.3-11.3,11.3h-7.6c-6.3,0-11.3-5.1-11.3-11.3 v-7.6C125.3,175.3,130.4,170.2,136.6,170.2z"></path> <path class="st25" d="M174.4,170.2h7.6c6.3,0,11.3,5.1,11.3,11.3v7.6c0,6.3-5.1,11.3-11.3,11.3h-7.6c-6.3,0-11.3-5.1-11.3-11.3 v-7.6C163.1,175.3,168.2,170.2,174.4,170.2z"></path> </g> <path d="M182,223.1H98.8c-14.6,0-26.5-11.8-26.5-26.5V68.2c0-14.6,11.8-26.5,26.5-26.5H182c14.6,0,26.5,11.8,26.5,26.5l0,0v128.5 C208.4,211.3,196.6,223.1,182,223.1z M98.8,49.3C88.4,49.3,80,57.7,80,68.2v128.5c0,10.4,8.5,18.9,18.9,18.9H182 c10.4,0,18.9-8.5,18.9-18.9V68.2c0-10.4-8.5-18.9-18.9-18.9L98.8,49.3L98.8,49.3z"></path> <path d="M182,117.3H98.8c-6.3,0-11.3-5.1-11.3-11.3V68.2c0-6.3,5.1-11.3,11.3-11.3H182c6.3,0,11.3,5.1,11.3,11.3v37.8 C193.3,112.2,188.2,117.3,182,117.3z M98.8,64.4c-2.1,0-3.8,1.7-3.8,3.8v37.8c0,2.1,1.7,3.8,3.8,3.8H182c2.1,0,3.8-1.7,3.8-3.8V68.2 c0-2.1-1.7-3.8-3.8-3.8H98.8z"></path> <path d="M166.9,79.5c-0.5,0-1-0.1-1.4-0.3c-0.5-0.2-0.9-0.4-1.2-0.8c-0.7-0.7-1.1-1.6-1.1-2.6c0-0.5,0.1-1,0.3-1.4 c0.2-0.5,0.4-0.9,0.8-1.2c0.3-0.4,0.7-0.7,1.2-0.8c1.4-0.6,3-0.3,4.1,0.8c0.4,0.3,0.7,0.7,0.8,1.2c0.2,0.4,0.3,0.9,0.3,1.4 C170.6,77.8,168.9,79.4,166.9,79.5z"></path> <path d="M166.9,102.2c-0.5,0-1-0.1-1.4-0.3c-0.5-0.2-0.9-0.4-1.2-0.8c-1.5-1.4-1.5-3.7-0.1-5.2c0,0,0.1-0.1,0.1-0.1 c0.3-0.4,0.7-0.7,1.2-0.8c1.4-0.6,3-0.2,4.1,0.8c1.5,1.5,1.4,3.9-0.1,5.3C168.8,101.8,167.8,102.2,166.9,102.2z"></path> <path d="M174.4,94.6c-2.1,0-3.8-1.7-3.8-3.8v-7.6c0-2.1,1.7-3.8,3.8-3.8s3.8,1.7,3.8,3.8v7.6C178.2,92.9,176.5,94.6,174.4,94.6z"></path> <path d="M159.3,94.6c-2.1,0-3.8-1.7-3.8-3.8v-7.6c0-2.1,1.7-3.8,3.8-3.8s3.8,1.7,3.8,3.8v7.6C163.1,92.9,161.4,94.6,159.3,94.6z"></path> <path d="M106.4,162.6h-7.6c-6.3,0-11.3-5.1-11.3-11.3l0,0v-7.6c0-6.3,5.1-11.3,11.3-11.3h7.6c6.3,0,11.3,5.1,11.3,11.3v7.6 C117.7,157.6,112.7,162.6,106.4,162.6L106.4,162.6z M98.8,140c-2.1,0-3.8,1.7-3.8,3.8v7.6c0,2.1,1.7,3.8,3.8,3.8h7.6 c2.1,0,3.8-1.7,3.8-3.8v-7.6c0-2.1-1.7-3.8-3.8-3.8H98.8z"></path> <path d="M144.2,162.6h-7.6c-6.3,0-11.3-5.1-11.3-11.3l0,0v-7.6c0-6.3,5.1-11.3,11.3-11.3h7.6c6.3,0,11.3,5.1,11.3,11.3v7.6 C155.5,157.6,150.5,162.6,144.2,162.6L144.2,162.6z M136.6,140c-2.1,0-3.8,1.7-3.8,3.8v7.6c0,2.1,1.7,3.8,3.8,3.8h7.6 c2.1,0,3.8-1.7,3.8-3.8v-7.6c0-2.1-1.7-3.8-3.8-3.8H136.6z"></path> <path d="M182,162.6h-7.6c-6.3,0-11.3-5.1-11.3-11.3l0,0v-7.6c0-6.3,5.1-11.3,11.3-11.3h7.6c6.3,0,11.3,5.1,11.3,11.3v7.6 C193.3,157.6,188.2,162.6,182,162.6L182,162.6z M174.4,140c-2.1,0-3.8,1.7-3.8,3.8v7.6c0,2.1,1.7,3.8,3.8,3.8h7.6 c2.1,0,3.8-1.7,3.8-3.8v-7.6c0-2.1-1.7-3.8-3.8-3.8H174.4z"></path> <path d="M106.4,200.4h-7.6c-6.3,0-11.3-5.1-11.3-11.3v-7.6c0-6.3,5.1-11.3,11.3-11.3h7.6c6.3,0,11.3,5.1,11.3,11.3v7.6 C117.7,195.4,112.7,200.4,106.4,200.4z M98.8,177.8c-2.1,0-3.8,1.7-3.8,3.8v7.6c0,2.1,1.7,3.8,3.8,3.8h7.6c2.1,0,3.8-1.7,3.8-3.8 v-7.6c0-2.1-1.7-3.8-3.8-3.8H98.8z"></path> <path d="M144.2,200.4h-7.6c-6.3,0-11.3-5.1-11.3-11.3v-7.6c0-6.3,5.1-11.3,11.3-11.3h7.6c6.3,0,11.3,5.1,11.3,11.3v7.6 C155.5,195.4,150.5,200.4,144.2,200.4z M136.6,177.8c-2.1,0-3.8,1.7-3.8,3.8v7.6c0,2.1,1.7,3.8,3.8,3.8h7.6c2.1,0,3.8-1.7,3.8-3.8 v-7.6c0-2.1-1.7-3.8-3.8-3.8H136.6z"></path> <path d="M182,200.4h-7.6c-6.3,0-11.3-5.1-11.3-11.3v-7.6c0-6.3,5.1-11.3,11.3-11.3h7.6c6.3,0,11.3,5.1,11.3,11.3v7.6 C193.3,195.4,188.2,200.4,182,200.4z M174.4,177.8c-2.1,0-3.8,1.7-3.8,3.8v7.6c0,2.1,1.7,3.8,3.8,3.8h7.6c2.1,0,3.8-1.7,3.8-3.8 v-7.6c0-2.1-1.7-3.8-3.8-3.8H174.4z"></path> </svg> 