<?xml version="1.0" encoding="UTF-8"?> <!-- Generator: Adobe Illustrator 24.2.0, SVG Export Plug-In . SVG Version: 6.00 Build 0) --> <svg xmlns="http://www.w3.org/2000/svg" xmlns:xlink="http://www.w3.org/1999/xlink" id="Layer_1" x="0px" y="0px" viewBox="0 0 100.8 100.7" style="enable-background:new 0 0 100.8 100.7;" xml:space="preserve"> <style type="text/css"> .st0{fill:#F15A29;} </style> <g> <path class="st0" d="M11.4,85.9C11.4,85.9,11.4,85.9,11.4,85.9c0,0.1,0.1,0.2,0.1,0.3c0,0,0,0.1,0,0.1c0,0.1,0.1,0.1,0.1,0.2 c0,0,0,0.1,0.1,0.1c0.1,0.1,0.1,0.1,0.2,0.2c0,0,0,0,0,0c0,0,0,0,0,0c0,0,0,0,0,0c0.1,0.1,0.2,0.1,0.2,0.1c0,0,0.1,0.1,0.1,0.1 c0.1,0,0.3,0.1,0.4,0.1h0c0,0,0,0,0,0s0,0,0,0c0.2,0,0.3,0,0.5-0.1c0,0,0,0,0.1,0l21.5-8.4c0.5-0.2,0.9-0.7,0.9-1.2l0.8-10.2 c0,0,0,0,0,0l35.9-51.7c0.2-0.3,0.3-0.7,0.2-1.1c-0.1-0.4-0.3-0.7-0.6-0.9L60.8,5.5c-0.7-0.5-1.6-0.3-2,0.4L22.8,57.5c0,0,0,0,0,0 l-9,4.3C13.3,62.1,13,62.5,13,63l-1.6,22.5c0,0,0,0,0,0C11.4,85.7,11.4,85.8,11.4,85.9z M60.3,8.7l9,6.3L35.1,64.2l-9-6.3L60.3,8.7 z M24.1,60.1l9.6,6.7L33,76.2l-16.2,6.3l5.6-7.9c0.5-0.7,0.3-1.6-0.4-2c-0.7-0.5-1.6-0.3-2,0.4l-5.4,7.6l1.2-16.4L24.1,60.1z"></path> <path class="st0" d="M94.3,91.7H5.1c-0.8,0-1.5,0.7-1.5,1.5s0.7,1.5,1.5,1.5h89.2c0.8,0,1.5-0.7,1.5-1.5S95.1,91.7,94.3,91.7z"></path> <path class="st0" d="M73.4,74.2c0.7,3.6-0.3,5.8-0.8,5.9c-0.2,0-0.7-0.2-1.4-1c-0.8-1-1.4-2.5-1.7-4.1c0,0,0,0,0-0.1 c-1-4.7-3.8-7.8-6.5-7.3c-2.4,0.5-3.8,3.8-3.3,7.9c0,0.1,0,0.3,0,0.4c0.9,4.4-0.2,7.6-1.3,7.8c-0.5,0.1-1.3-0.4-2-1.4 c-1-1.3-1.8-3.1-2.2-5.2c0,0,0,0,0-0.1c-1.2-5.8-4.5-9.6-7.7-8.9c-3.2,0.7-4.7,5.5-3.6,11.2c0.2,0.8,0.9,1.3,1.7,1.1 c0.8-0.2,1.3-0.9,1.1-1.7c-0.9-4.4,0.2-7.6,1.3-7.8c1.1-0.2,3.3,2.3,4.2,6.6c0,0,0,0,0,0.1c0.5,2.5,1.5,4.8,2.7,6.5 c1.3,1.7,2.7,2.6,4.2,2.6c0.2,0,0.5,0,0.7-0.1c2.9-0.6,4.5-4.7,3.8-9.8c0-0.1,0-0.2,0-0.4c-0.7-3.6,0.3-5.8,0.8-5.9 c0.6-0.1,2.3,1.5,3.1,5.1c0,0,0,0,0,0.1c0.4,2,1.2,3.9,2.2,5.2c1.1,1.4,2.3,2.2,3.6,2.2c0.2,0,0.4,0,0.6-0.1 c2.7-0.6,4.1-4.5,3.1-9.3c0,0,0,0,0,0c-0.4-1.9,0-3.2,0.2-3.5c0.4,0.2,1.2,1.3,1.6,3.2c0,0,0,0.1,0,0.1c0.3,1.4,0.9,2.7,1.6,3.7 c0.8,1.1,1.8,1.7,2.9,1.7c0.2,0,0.3,0,0.5-0.1c2.2-0.4,3.2-3.4,2.5-7c-0.2-0.8-0.9-1.3-1.7-1.1c-0.8,0.2-1.3,0.9-1.1,1.7 c0.4,1.9,0,3.2-0.2,3.5c-0.4-0.2-1.2-1.3-1.6-3.2c0,0,0-0.1,0-0.1c-0.8-3.5-2.8-5.7-5-5.3C73.7,67.7,72.7,70.6,73.4,74.2 C73.4,74.2,73.4,74.2,73.4,74.2z"></path> </g> </svg> 