<?xml version="1.0" encoding="UTF-8"?> <!-- Generator: Adobe Illustrator 17.1.0, SVG Export Plug-In . SVG Version: 6.00 Build 0) --> <svg xmlns="http://www.w3.org/2000/svg" xmlns:xlink="http://www.w3.org/1999/xlink" id="Layer_1" x="0px" y="0px" viewBox="0 0 117 41" xml:space="preserve"> <path fill="#FFFFFF" d="M31.4,21.5c-1.1,2.3-3,4.2-5.3,5.3c-2.3,1.1-4.9,1.4-7.4,0.8c-2.5-0.6-4.7-2-6.3-4.1c-1.6-2-2.4-4.6-2.4-7.2 c0-2.6,0.9-5.1,2.4-7.2c1.6-2,3.8-3.5,6.3-4.1c2.5-0.6,5.1-0.3,7.4,0.8c2.3,1.1,4.2,3,5.3,5.3L35.5,9c-1.6-3.3-4.2-5.9-7.5-7.5 C24.8,0,21.1-0.4,17.7,0.4s-6.6,2.9-8.8,5.8c-2.2,2.9-3.4,6.5-3.4,10.1c0,3.7,1.2,7.3,3.4,10.1c2.2,2.9,5.3,4.9,8.8,5.8 c3.5,0.8,7.2,0.5,10.4-1.1c3.2-1.6,5.9-4.2,7.5-7.5L31.4,21.5z"></path> <path fill="#33C369" d="M39.7,25.8c-1.7,3.5-4.3,6.4-7.5,8.5c-3.2,2.1-6.9,3.2-10.7,3.2c-3.8,0-7.5-1-10.8-3c-3.2-2-5.9-4.9-7.6-8.4 L0,27.7c2,4,5.1,7.4,8.9,9.8c3.8,2.3,8.1,3.6,12.6,3.5c4.4,0,8.8-1.3,12.5-3.7c3.8-2.4,6.8-5.8,8.8-9.9L39.7,25.8z"></path> <path fill="#FFFFFF" d="M59.6,19.2c-0.4,0.8-1.1,1.4-1.8,1.9c-0.8,0.5-1.6,0.7-2.5,0.7c-3.1,0-5.3-2.3-5.3-5.5s2.2-5.5,5.3-5.5 c0.9,0,1.7,0.2,2.5,0.7c0.8,0.4,1.4,1.1,1.8,1.9l0.2,0.3l1.5-0.9l-0.2-0.3c-0.6-1-1.5-1.9-2.5-2.5c-1-0.6-2.2-0.9-3.4-0.9 c-4,0-7.1,3.1-7.1,7.2s3.1,7.2,7.1,7.2c1.2,0,2.4-0.3,3.4-0.9c1-0.6,1.9-1.5,2.5-2.6l0.2-0.3l-1.5-0.9L59.6,19.2z"></path> <path fill="#FFFFFF" d="M65.3,14v-0.9h-1.7v10.3h1.7v-5.7c0-2.8,2.1-3,2.7-3h0.4v-1.7H68c-0.5,0-1,0.1-1.5,0.2 C66.1,13.4,65.7,13.7,65.3,14z"></path> <path fill="#FFFFFF" d="M74.6,12.9c-3,0-5.2,2.2-5.2,5.4c0,3.1,2.2,5.3,5.2,5.3c1.9,0,3.5-0.9,4.4-2.3l0.2-0.3L77.7,20l-0.2,0.3 c-0.5,1-1.6,1.5-2.9,1.5c-1.8,0-3.1-1.1-3.5-2.7h8.3v-0.4c0-0.1,0-0.1,0-0.2c0-0.1,0-0.2,0-0.3C79.5,15.6,77.8,12.9,74.6,12.9z M74.6,14.6c0.8,0,1.5,0.3,2.1,0.8c0.6,0.5,1,1.2,1.1,2h-6.5c0.1-0.8,0.6-1.5,1.2-2C73,14.8,73.8,14.5,74.6,14.6z"></path> <path fill="#FFFFFF" d="M90.2,14.4c-0.5-0.5-1-0.9-1.6-1.2c-0.6-0.3-1.3-0.4-1.9-0.4c-1.4,0-2.6,0.6-3.6,1.6c-0.9,1-1.5,2.3-1.5,3.7 s0.5,2.7,1.5,3.7c0.9,1,2.2,1.6,3.6,1.6c0.7,0,1.3-0.1,2-0.4c0.6-0.3,1.2-0.7,1.6-1.2v1.3h1.7v-14h-1.7L90.2,14.4z M86.6,21.8 c-0.7,0-1.4-0.2-2-0.6c-0.6-0.4-1-1-1.3-1.6c-0.3-0.7-0.3-1.4-0.2-2.1c0.1-0.7,0.5-1.4,1-1.9c0.5-0.5,1.1-0.9,1.8-1 c0.7-0.1,1.4-0.1,2,0.2c0.6,0.3,1.2,0.7,1.6,1.3c0.4,0.6,0.6,1.3,0.6,2c0,0.5-0.1,0.9-0.3,1.4c-0.2,0.4-0.4,0.8-0.8,1.2 c-0.3,0.3-0.7,0.6-1.1,0.8S87.1,21.8,86.6,21.8z"></path> <path fill="#FFFFFF" d="M99.6,12.9c-3,0-5.2,2.2-5.2,5.3c0,3.1,2.2,5.3,5.2,5.3c1.9,0,3.5-0.9,4.4-2.3l0.2-0.3l-1.5-0.9l-0.2,0.3 c-0.5,1-1.6,1.5-2.9,1.5c-1.8,0-3.1-1.1-3.5-2.7h8.3v-0.4c0-0.1,0-0.1,0-0.2c0-0.1,0-0.2,0-0.3C104.5,15.6,102.8,12.9,99.6,12.9z M99.6,14.6c0.8,0,1.5,0.3,2.1,0.8c0.6,0.5,1,1.2,1.1,2h-6.5c0.1-0.8,0.6-1.5,1.2-2C98,14.8,98.8,14.5,99.6,14.6z"></path> <path fill="#FFFFFF" d="M102,7.8h-2.1L98,11h1.8L102,7.8z"></path> <path fill="#FFFFFF" d="M111.6,12.9c-1,0-2,0.3-2.9,0.9s-1.5,1.4-1.9,2.4c-0.4,1-0.5,2-0.3,3.1c0.2,1,0.7,2,1.4,2.7 c0.7,0.7,1.7,1.3,2.7,1.5c1,0.2,2.1,0.1,3-0.3c0.9-0.4,1.8-1.1,2.3-2c0.6-0.9,0.9-1.9,0.9-3c0-0.7-0.1-1.4-0.4-2.1 c-0.3-0.7-0.6-1.2-1.1-1.7c-0.5-0.5-1.1-0.9-1.7-1.2C113,13,112.3,12.9,111.6,12.9z M111.6,21.9c-0.7,0-1.4-0.2-2-0.6 c-0.6-0.4-1-1-1.3-1.6c-0.3-0.7-0.3-1.4-0.2-2.1c0.1-0.7,0.5-1.4,1-1.9c0.5-0.5,1.1-0.9,1.8-1c0.7-0.1,1.4-0.1,2.1,0.2 c0.6,0.3,1.2,0.7,1.6,1.3c0.4,0.6,0.6,1.3,0.6,2c0,0.5-0.1,0.9-0.3,1.4c-0.2,0.4-0.4,0.8-0.8,1.2c-0.3,0.3-0.7,0.6-1.1,0.8 C112.5,21.8,112.1,21.8,111.6,21.9L111.6,21.9z"></path> </svg> 