<svg width="22" height="22" viewBox="0 0 22 22" fill="none" xmlns="http://www.w3.org/2000/svg">
    <path d="M14.6709 21.2588C19.9839 19.3343 22.9423 13.7631 21.6931 8.42997C21.5393 7.77321 20.8347 7.44487 20.2009 7.67445C19.5671 7.90403 19.2463 8.60481 19.3792 9.26625C20.1968 13.3355 17.9089 17.5123 13.8595 18.979C9.41823 20.5877 4.55644 18.321 2.98652 13.9098C1.4166 9.49847 3.73894 4.62958 8.18025 3.02087C9.98427 2.36743 11.8638 2.361 13.5588 2.88028C14.1979 3.07609 14.919 2.82526 15.2084 2.21859C15.5006 1.60605 15.2415 0.867163 14.6019 0.651591C12.3385 -0.111329 9.80896 -0.14268 7.36893 0.741136C1.66522 2.8071 -1.32488 9.07599 0.691265 14.7411C2.70741 20.4063 8.96717 23.3247 14.6709 21.2588Z" fill="#22C44F"/>
    <path d="M7.89955 7.77253C7.4202 7.27573 6.62887 7.26157 6.13207 7.74092C5.63526 8.22027 5.6211 9.0116 6.10045 9.5084L7.89955 7.77253ZM20.9364 3.995C21.3937 3.47782 21.3452 2.68786 20.828 2.23056C20.3108 1.77327 19.5209 1.82181 19.0636 2.33898L20.9364 3.995ZM11.2581 13.0536L10.3585 13.9216L11.2981 14.8954L12.1945 13.8816L11.2581 13.0536ZM6.10045 9.5084L10.3585 13.9216L12.1576 12.1857L7.89955 7.77253L6.10045 9.5084ZM12.1945 13.8816L20.9364 3.995L19.0636 2.33898L10.3216 12.2256L12.1945 13.8816Z" fill="#22C44F"/>
</svg>
