<svg width="23" height="23" viewBox="0 0 23 23" fill="none" xmlns="http://www.w3.org/2000/svg">
    <path d="M22 11.5823C22 17.2986 17.3098 21.9519 11.5 21.9519C5.69023 21.9519 1 17.2986 1 11.5823C1 5.86601 5.69023 1.21265 11.5 1.21265C17.3098 1.21265 22 5.86601 22 11.5823Z" stroke="#22C44F" stroke-width="2"/>
    <path d="M12.9813 12.8801L12.9819 12.8806C13.2823 13.1391 13.4289 13.4521 13.4289 13.8251C13.4289 14.2731 13.2575 14.6203 12.9132 14.8771C12.5656 15.1364 12.0804 15.2719 11.4463 15.2719C10.8002 15.2719 10.3161 15.1115 9.97954 14.8044C9.64459 14.4987 9.47111 14.059 9.47111 13.4696V13.3696H9.37111H8H7.9V13.4696C7.9 14.3597 8.16651 15.0764 8.70816 15.6079L8.70881 15.6085C9.23527 16.1158 9.94959 16.4093 10.8423 16.4968V17.6626V17.7626H10.9423H12.0392H12.1392V17.6626V16.4959C13.0145 16.4019 13.7084 16.1317 14.211 15.6766C14.7381 15.2037 15 14.5788 15 13.8119C15 13.3321 14.8954 12.9083 14.6827 12.5442C14.475 12.1799 14.1503 11.8661 13.7149 11.6007C13.2838 11.3305 12.686 11.0884 11.9261 10.8722C11.1794 10.654 10.6538 10.4172 10.3381 10.1664C10.0372 9.91909 9.88614 9.59077 9.88614 9.17129C9.88614 8.71205 10.033 8.3668 10.3183 8.12151L10.3183 8.12151L10.3189 8.12098C10.6055 7.87043 11.0281 7.73758 11.6019 7.73758C12.1415 7.73758 12.5601 7.91091 12.8694 8.25118C13.1797 8.59261 13.34 9.05786 13.34 9.65838V9.75838H13.44H14.8037H14.9037V9.65838C14.9037 8.74168 14.6667 8.0067 14.1816 7.46569C13.7194 6.94489 13.0799 6.63048 12.2726 6.51642V5.15601V5.05601H12.1726H11.0683H10.9683V5.15601V6.50843C10.1684 6.60794 9.52591 6.88578 9.04944 7.34863L9.04907 7.349C8.55862 7.83044 8.31504 8.4473 8.31504 9.19103C8.31504 9.92285 8.56442 10.5331 9.06464 11.014L9.06535 11.0147C9.56669 11.4872 10.3529 11.8635 11.4116 12.1506C12.1632 12.3732 12.6819 12.6183 12.9813 12.8801Z" fill="#22C44F" stroke="#22C44F" stroke-width="0.2"/>
</svg>
