<svg width="18" height="22" viewBox="0 0 18 22" fill="none" xmlns="http://www.w3.org/2000/svg">
    <path fill-rule="evenodd" clip-rule="evenodd" d="M8.99412 22C2.99804 19.3271 0 16.6601 0 13.9999V4.00042C0 3.23244 0.294408 3.05393 1.1092 2.56044C1.35589 2.4112 1.65034 2.2327 1.9987 2.00021C2.16038 1.89221 5.55957 0 8.99412 0C11.9874 0 14.4905 1.00048 15.9895 2.00021C16.3379 2.2327 16.6323 2.4112 16.879 2.56044C17.6938 3.05393 17.9882 3.23244 17.9882 4.00042C18.008 4.21717 17.9983 8.8378 17.9921 11.795C17.99 12.803 17.9882 13.6189 17.9882 13.9999C17.9882 16.6669 14.9902 19.3331 8.99412 22ZM15.9897 13.9999C15.9897 13.7697 15.9903 13.3834 15.9915 12.755L15.9955 10.8013C15.9968 10.1698 15.9978 9.62753 15.9987 9.11005C16.0023 6.8781 16.0014 4.96189 15.9992 4.3694L15.862 4.28391C15.5388 4.08366 15.1176 3.82191 14.881 3.66442C13.4057 2.68044 11.2529 2.00021 8.9942 2.00021C6.83373 2.00021 4.02611 3.05168 3.10748 3.66442C2.87089 3.82191 2.44974 4.08366 2.12659 4.28391L1.9988 4.36341V13.9999C1.9988 15.5082 4.22646 17.5683 8.99517 19.8018C13.7633 17.5736 15.9897 15.5142 15.9897 13.9999ZM12.9922 8.00057C12.6018 7.60979 11.9684 7.60977 11.5779 8.00053L7.99503 11.5857L6.41084 10.0007C6.02033 9.60993 5.38695 9.60998 4.9965 10.0008C4.60642 10.3912 4.60647 11.0238 4.99663 11.4141L7.99503 14.4139L12.9922 9.41396C13.3823 9.02361 13.3823 8.39096 12.9922 8.00057Z" fill="#22C44F"/>
</svg>
