<svg width="24" height="24" fill="none" xmlns="http://www.w3.org/2000/svg"><path fill-rule="evenodd" clip-rule="evenodd" d="M2 10c0-.552.224-1 .5-1h9c.276 0 .5.448.5 1s-.224 1-.5 1h-9c-.276 0-.5-.448-.5-1zm0-4c0-.552.313-1 .7-1h12.6c.387 0 .7.448.7 1s-.313 1-.7 1H2.7C2.313 7 2 6.552 2 6zm0 8c0-.552.134-1 .3-1h5.4c.166 0 .3.448.3 1s-.134 1-.3 1H2.3c-.166 0-.3-.448-.3-1zm19.753-2.658a1 1 0 01-.096 1.411l-6.874 6a1 1 0 01-1.316 0l-3.125-2.727a1 1 0 011.316-1.507l2.467 2.154 6.218-5.426a1 1 0 011.41.095z" fill="#357BE3"/></svg>