<svg width="24" height="24" fill="none" xmlns="http://www.w3.org/2000/svg"><path fill-rule="evenodd" clip-rule="evenodd" d="M2 10c0-.552.224-1 .5-1h9c.276 0 .5.448.5 1s-.224 1-.5 1h-9c-.276 0-.5-.448-.5-1zm0-4c0-.552.313-1 .7-1h12.6c.387 0 .7.448.7 1s-.313 1-.7 1H2.7C2.313 7 2 6.552 2 6zm0 8c0-.552.134-1 .3-1h5.4c.166 0 .3.448.3 1s-.134 1-.3 1H2.3c-.166 0-.3-.448-.3-1zm15-5c.552 0 1 .28 1 .625v8.75c0 .345-.448.625-1 .625s-1-.28-1-.625v-8.75C16 9.28 16.448 9 17 9z" fill="#6B6B6B"/><path fill-rule="evenodd" clip-rule="evenodd" d="M12 14c0-.552.28-1 .625-1h8.75c.345 0 .625.448.625 1s-.28 1-.625 1h-8.75c-.345 0-.625-.448-.625-1z" fill="#6B6B6B"/></svg>