<svg width="26" height="23" viewBox="0 0 26 23" fill="none" xmlns="http://www.w3.org/2000/svg">
    <path d="M14.8571 0.212646C8.70381 0.212646 3.71429 5.30372 3.71429 11.5823H0L4.81619 16.4965L4.90286 16.6734L9.90476 11.5823H6.19048C6.19048 6.69334 10.0657 2.73923 14.8571 2.73923C19.6486 2.73923 23.5238 6.69334 23.5238 11.5823C23.5238 16.4712 19.6486 20.4253 14.8571 20.4253C12.9247 20.4253 11.138 19.7726 9.70011 18.6744C9.14073 18.2471 8.33514 18.237 7.84246 18.7397C7.36494 19.227 7.36077 20.0131 7.88796 20.4461C9.79566 22.013 12.2125 22.9519 14.8571 22.9519C21.0105 22.9519 26 17.8609 26 11.5823C26 5.30372 21.0105 0.212646 14.8571 0.212646ZM14.5476 6.52912C14.0348 6.52912 13.619 6.94485 13.619 7.45769V12.8456L18.0685 15.5376C18.5157 15.8081 19.0977 15.6614 19.3632 15.2111C19.6243 14.7683 19.4806 14.1978 19.0409 13.9314L15.4762 11.7718V7.45769C15.4762 6.94485 15.0605 6.52912 14.5476 6.52912Z" fill="#22C44F"/>
</svg>
